# xmcd
# 
# Track frame offsets:
#     150
#     11264
#     26903
#     38869
#     56095
#     69221
#     86946
#     94778
#     110611
#     123556
#     133998
#     154579
#     167293
#     181003
#     193573
#     213052
# 
# Disc length: 2994
# 
# Revision: 1
# Processed by: cddbd v1.5.2PL0 Copyright (c) Steve Scherf et al.
# Submitted via: BonkEnc v1.0.8
# 
DISCID=d00bb010
DTITLE=Country No. 1 (3) - El Paso
DYEAR=2007
DGENRE=Country
TTITLE0=Jesse James
TTITLE1=El Paso
TTITLE2=Zuzana
TTITLE3=Abych tu žil
TTITLE4=Na vánoce ráno
TTITLE5=Růže s Texasu
TTITLE6=Rodné údolí
TTITLE7=Já a ty (Honesty)
TTITLE8=Blízko Little Big Hornu
TTITLE9=Za chvíli už budu v dáli
TTITLE10=Modrá z džín
TTITLE11=Drnová chajda
TTITLE12=Boty z kůže toulavejch psů
TTITLE13=Černý kůň
TTITLE14=Karolína
TTITLE15=Pejskové se koušou (Poetry In Motion)
EXTD=
EXTT0=
EXTT1=
EXTT2=
EXTT3=
EXTT4=
EXTT5=
EXTT6=
EXTT7=
EXTT8=
EXTT9=
EXTT10=
EXTT11=
EXTT12=
EXTT13=
EXTT14=
EXTT15=
PLAYORDER=
